# xmcd
#
# Track frame offsets:
#	150
#	13686
#	34125
#	49382
#	68076
#	84536
#	101963
#	119156
#	135034
#	150796
#	175768
#	188931
#
# Disc length: 2776 seconds
# Revision: 0
# Processed by: cddbd v1.5.2PL0 Copyright (c) Steve Scherf et al.
# Submitted via: dBpowerAMP V12.0
#
DISCID=9a0ad60c
DTITLE=Greg Bain - Winds Of Change
DYEAR=2017
DGENRE=Country
TTITLE0=Rainbow In The Rock
TTITLE1=Quandamooka Ways
TTITLE2=The Black Plaques of Tarcutta
TTITLE3=The Chimney and The Rose
TTITLE4=Batlow Apples
TTITLE5=Yours Truly
TTITLE6=One Of A Kind
TTITLE7=Nearer To God
TTITLE8=Not For Sale
TTITLE9=A Bushman Can't Survive
TTITLE10=The Spirit Of Ned Kelly
TTITLE11=The Winds of Change
EXTD=
EXTT0=
EXTT1=
EXTT2=
EXTT3=
EXTT4=
EXTT5=
EXTT6=
EXTT7=
EXTT8=
EXTT9=
EXTT10=
EXTT11=
PLAYORDER=
